<svg width="36" height="30" viewBox="0 0 36 30" fill="none" xmlns="http://www.w3.org/2000/svg">
<path fill-rule="evenodd" clip-rule="evenodd" d="M17.3828 16.9989C17.648 16.9989 17.9024 17.1042 18.0899 17.2918C18.2775 17.4793 18.3828 17.7337 18.3828 17.9989V28.9989C18.3828 29.2641 18.2775 29.5184 18.0899 29.706C17.9024 29.8935 17.648 29.9989 17.3828 29.9989C17.1176 29.9989 16.8632 29.8935 16.6757 29.706C16.4882 29.5184 16.3828 29.2641 16.3828 28.9989V17.9989C16.3828 17.7337 16.4882 17.4793 16.6757 17.2918C16.8632 17.1042 17.1176 16.9989 17.3828 16.9989Z" fill="white"/>
<path fill-rule="evenodd" clip-rule="evenodd" d="M2.56251 8.28487C3.36251 10.7849 4.92251 13.3029 6.89251 14.7589C9.18451 16.4549 11.2525 17.0029 12.9285 16.8929C13.6935 16.8506 14.4419 16.6535 15.1284 16.3135C15.8149 15.9735 16.4253 15.4977 16.9225 14.9149C17.7525 13.9409 18.0045 12.4909 17.5605 10.8149C17.1165 9.14287 15.9945 7.34487 14.2605 5.86887C12.5125 4.37887 9.93451 3.04287 7.54651 2.39887C6.35451 2.07887 5.26651 1.94487 4.38251 2.01887C3.49851 2.09287 2.93451 2.36687 2.61451 2.74087C2.27051 3.14487 2.02851 3.84687 2.00451 4.86087C1.98051 5.85687 2.16851 7.04487 2.56251 8.28487ZM0.00251108 4.81487C0.0325111 3.56487 0.330511 2.33887 1.09051 1.44687C1.87451 0.526867 3.02851 0.128867 4.21251 0.0268671C5.40251 -0.0731329 6.73651 0.112867 8.06451 0.470867C10.7185 1.18487 13.5665 2.65287 15.5565 4.34687C17.5605 6.05487 18.9305 8.19087 19.4905 10.3029C20.0505 12.4109 19.8185 14.5989 18.4425 16.2149C17.772 17.001 16.9493 17.6433 16.024 18.1032C15.0988 18.5631 14.09 18.831 13.0585 18.8909C10.8185 19.0369 8.29451 18.2869 5.70251 16.3709C3.30851 14.5949 1.54651 11.6749 0.658511 8.89087C0.212511 7.49087 -0.0274889 6.07887 0.00251108 4.81087" fill="white"/>
<path fill-rule="evenodd" clip-rule="evenodd" d="M32.4668 14.0489C31.4888 16.2949 29.8648 18.4669 27.9428 19.5249C23.5088 21.9649 20.3868 20.1049 19.3068 18.3829C18.8528 17.6569 18.7528 16.3149 19.3268 14.7429C19.8868 13.2129 21.0268 11.6449 22.7408 10.5709C24.5068 9.46686 26.9708 8.69686 29.1528 8.47086C30.2428 8.36086 31.2068 8.39086 31.9448 8.55086C32.7088 8.71686 33.0628 8.98486 33.1948 9.19486C33.3528 9.44686 33.4748 10.0189 33.3628 10.9609C33.2548 11.8609 32.9508 12.9389 32.4668 14.0489ZM35.3468 11.1989C35.4788 10.1109 35.4148 8.97286 34.8908 8.13286C34.3388 7.25286 33.3508 6.81086 32.3688 6.59686C31.3588 6.37686 30.1688 6.35686 28.9488 6.48286C26.5128 6.73286 23.7448 7.58286 21.6808 8.87686C19.7382 10.0904 18.2505 11.9113 17.4488 14.0569C16.7628 15.9349 16.7008 17.9889 17.6108 19.4429C19.2628 22.0809 23.5568 24.2209 28.9068 21.2769C31.3548 19.9289 33.2228 17.3229 34.3008 14.8469C34.8468 13.5969 35.2128 12.3289 35.3488 11.1989" fill="white"/>
<path fill-rule="evenodd" clip-rule="evenodd" d="M15.6028 16.6249C14.3294 15.029 12.8575 13.6021 11.2228 12.3789L9.78281 11.2989C9.67776 11.2201 9.58925 11.1214 9.52234 11.0084C9.45543 10.8954 9.41143 10.7703 9.39286 10.6403C9.37429 10.5103 9.38151 10.3779 9.4141 10.2507C9.44669 10.1235 9.50402 10.0039 9.58281 9.89887C9.66161 9.79381 9.76032 9.7053 9.87332 9.6384C9.98632 9.57149 10.1114 9.52749 10.2414 9.50892C10.3714 9.49035 10.5038 9.49757 10.631 9.53016C10.7582 9.56275 10.8778 9.62008 10.9828 9.69887L12.4228 10.7789C14.1868 12.1049 15.7828 13.6489 17.1628 15.3749C17.3189 15.5826 17.3879 15.8429 17.3554 16.1007C17.3229 16.3584 17.1913 16.5934 16.9886 16.7559C16.7858 16.9183 16.5278 16.9955 16.2692 16.9711C16.0105 16.9466 15.7715 16.8224 15.6028 16.6249ZM20.0908 20.2069C21.3667 18.9318 22.7823 17.8047 24.3108 16.8469L25.9128 15.8469C26.0242 15.7773 26.1207 15.6864 26.197 15.5795C26.2732 15.4726 26.3277 15.3517 26.3572 15.2237C26.3867 15.0958 26.3908 14.9632 26.3691 14.8337C26.3474 14.7042 26.3004 14.5802 26.2308 14.4689C26.1612 14.3575 26.0704 14.2609 25.9634 14.1847C25.8565 14.1084 25.7356 14.054 25.6077 14.0245C25.4797 13.9949 25.3472 13.9909 25.2177 14.0126C25.0882 14.0343 24.9642 14.0813 24.8528 14.1509L23.2528 15.1509C21.5955 16.1883 20.0604 17.4093 18.6768 18.7909C18.489 18.9784 18.3834 19.2328 18.3833 19.4982C18.3831 19.7635 18.4883 20.0181 18.6758 20.2059C18.8633 20.3936 19.1177 20.4992 19.3831 20.4994C19.6485 20.4996 19.903 20.3944 20.0908 20.2069Z" fill="white"/>
</svg>
