<svg width="30" height="30" viewBox="0 0 30 30" fill="none" xmlns="http://www.w3.org/2000/svg">
<mask id="mask0_655_2676" style="mask-type:luminance" maskUnits="userSpaceOnUse" x="2" y="2" width="26" height="26">
<path d="M24.375 3.75H5.625C5.12772 3.75 4.65081 3.94754 4.29917 4.29917C3.94754 4.65081 3.75 5.12772 3.75 5.625V24.375C3.75 24.8723 3.94754 25.3492 4.29917 25.7008C4.65081 26.0525 5.12772 26.25 5.625 26.25H24.375C24.8723 26.25 25.3492 26.0525 25.7008 25.7008C26.0525 25.3492 26.25 24.8723 26.25 24.375V5.625C26.25 5.12772 26.0525 4.65081 25.7008 4.29917C25.3492 3.94754 24.8723 3.75 24.375 3.75Z" fill="white" stroke="white" stroke-width="2"/>
<path d="M12.15 8.75C12.4275 8.75 12.6837 8.90063 12.8187 9.14375L13.7537 10.8281C13.8762 11.0488 13.8819 11.3156 13.7687 11.5406L13.125 13.125C13.125 13.125 13.2825 14.5325 14.375 15.625C15.4675 16.7175 16.875 16.875 16.875 16.875L18.4544 16.2262C18.6794 16.1137 18.9469 16.12 19.1675 16.2419L20.8569 17.1812C21.0994 17.3162 21.25 17.5719 21.25 17.85V19.7894C21.25 20.7769 20.3325 21.49 19.3969 21.1744C17.4744 20.5256 14.4906 19.2913 12.6 17.3994C10.7087 15.5088 9.47436 12.5256 8.82561 10.6031C8.50998 9.6675 9.22311 8.75 10.2106 8.75H12.15Z" fill="black" stroke="black" stroke-width="1.959" stroke-linejoin="round"/>
</mask>
<g mask="url(#mask0_655_2676)">
<path d="M0 0H30V30H0V0Z" fill="white"/>
</g>
</svg>
