<svg width="130" height="130" viewBox="0 0 130 130" fill="none" xmlns="http://www.w3.org/2000/svg">
<path d="M65 14.2188C54.9564 14.2187 45.1384 17.197 36.7875 22.7769C28.4365 28.3568 21.9278 36.2878 18.0843 45.5669C14.2408 54.8459 13.2351 65.0563 15.1945 74.9069C17.1539 84.7575 21.9904 93.8059 29.0923 100.908C36.1941 108.01 45.2425 112.846 55.0931 114.805C64.9437 116.765 75.1541 115.759 84.4332 111.916C93.7122 108.072 101.643 101.563 107.223 93.2125C112.803 84.8616 115.781 75.0436 115.781 65C115.766 51.5365 110.412 38.6287 100.891 29.1086C91.3713 19.5884 78.4635 14.2335 65 14.2188ZM34.9731 100.76C37.987 95.4531 42.3536 91.0397 47.6282 87.9693C52.9028 84.899 58.8969 83.2814 65 83.2814C71.1032 83.2814 77.0973 84.899 82.3719 87.9693C87.6464 91.0397 92.0131 95.4531 95.027 100.76C86.6222 107.838 75.9877 111.719 65 111.719C54.0124 111.719 43.3778 107.838 34.9731 100.76ZM98.0942 97.9418C93.0484 89.505 84.9584 83.3252 75.4914 80.6762C79.893 78.3354 83.3852 74.5898 85.4126 70.0354C87.44 65.481 87.8861 60.3795 86.6798 55.5423C85.4736 50.7052 82.6843 46.4104 78.7558 43.3413C74.8273 40.2721 69.9853 38.6049 65 38.6049C60.0148 38.6049 55.1727 40.2721 51.2442 43.3413C47.3157 46.4104 44.5264 50.7052 43.3202 55.5423C42.114 60.3795 42.56 65.481 44.5874 70.0354C46.6148 74.5898 50.1071 78.3354 54.5086 80.6762C45.0417 83.3252 36.9517 89.505 31.9059 97.9418C25.3889 91.4014 20.9559 83.0767 19.1668 74.0187C17.3777 64.9607 18.3126 55.5757 21.8535 47.0487C25.3945 38.5217 31.3826 31.2351 39.0618 26.1089C46.7411 20.9828 55.767 18.247 65 18.247C74.233 18.247 83.259 20.9828 90.9382 26.1089C98.6174 31.2351 104.606 38.5217 108.147 47.0487C111.687 55.5757 112.622 64.9607 110.833 74.0187C109.044 83.0767 104.611 91.4014 98.0942 97.9418ZM65 79.2188C61.3843 79.2188 57.8498 78.1466 54.8435 76.1378C51.8372 74.129 49.494 71.2739 48.1103 67.9334C46.7267 64.593 46.3647 60.9172 47.07 57.371C47.7754 53.8248 49.5166 50.5674 52.0732 48.0107C54.6299 45.454 57.8873 43.7129 61.4335 43.0075C64.9797 42.3021 68.6555 42.6642 71.996 44.0478C75.3364 45.4315 78.1916 47.7746 80.2003 50.781C82.2091 53.7873 83.2813 57.3218 83.2813 60.9375C83.2813 65.786 81.3552 70.4359 77.9268 73.8643C74.4984 77.2927 69.8485 79.2188 65 79.2188Z" fill="white"/>
</svg>
