<svg width="30" height="30" viewBox="0 0 30 30" fill="none" xmlns="http://www.w3.org/2000/svg">
<path d="M21.8608 24.0485C20.6945 25.6108 19.458 27.1353 17.575 27.1605C15.6921 27.1983 15.0878 26.1652 12.952 26.1652C10.802 26.1652 10.1416 27.1353 8.35699 27.1983C6.51619 27.2613 5.12506 25.5352 3.9447 24.0107C1.54183 20.8987 -0.29897 15.1661 2.17416 11.3108C3.39667 9.39571 5.58877 8.18619 7.96353 8.14839C9.76217 8.12319 11.4765 9.24452 12.5866 9.24452C13.6826 9.24452 15.7623 7.89641 17.9404 8.09799C18.8537 8.13579 21.4112 8.42557 23.0553 10.5926C22.9288 10.6682 20.006 12.2053 20.0341 15.3929C20.0763 19.1979 23.7578 20.4704 23.8 20.483C23.7578 20.5712 23.2098 22.2972 21.8608 24.0485ZM13.8372 3.88987C14.863 2.84414 16.5633 2.0504 17.9685 2C18.1511 3.4741 17.4907 4.9608 16.5071 6.01913C15.5375 7.09006 13.9356 7.92161 12.3618 7.80821C12.151 6.35931 12.9379 4.84741 13.8372 3.88987Z" fill="white"/>
</svg>
