<svg width="30" height="30" viewBox="0 0 30 30" fill="none" xmlns="http://www.w3.org/2000/svg">
<path d="M16.2847 2.5C17.691 2.50375 18.4047 2.51125 19.021 2.52875L19.2635 2.5375C19.5435 2.5475 19.8197 2.56 20.1535 2.575C21.4835 2.6375 22.391 2.8475 23.1872 3.15625C24.0122 3.47375 24.7072 3.90375 25.4022 4.5975C26.0381 5.22217 26.53 5.97809 26.8435 6.8125C27.1522 7.60875 27.3622 8.51625 27.4247 9.8475C27.4397 10.18 27.4522 10.4563 27.4622 10.7375L27.4697 10.98C27.4885 11.595 27.496 12.3088 27.4985 13.715L27.4997 14.6475V16.285C27.5028 17.1968 27.4932 18.1085 27.471 19.02L27.4635 19.2625C27.4535 19.5437 27.441 19.82 27.426 20.1525C27.3635 21.4837 27.151 22.39 26.8435 23.1875C26.53 24.0219 26.0381 24.7778 25.4022 25.4025C24.7776 26.0384 24.0216 26.5302 23.1872 26.8438C22.391 27.1525 21.4835 27.3625 20.1535 27.425L19.2635 27.4625L19.021 27.47C18.4047 27.4875 17.691 27.4963 16.2847 27.4988L15.3522 27.5H13.716C12.8038 27.5032 11.8916 27.4936 10.9797 27.4712L10.7372 27.4638C10.4405 27.4525 10.1438 27.4396 9.84723 27.425C8.51723 27.3625 7.60973 27.1525 6.81223 26.8438C5.97827 26.5301 5.22279 26.0382 4.59848 25.4025C3.96217 24.778 3.46987 24.022 3.15598 23.1875C2.84723 22.3912 2.63723 21.4837 2.57473 20.1525L2.53723 19.2625L2.53098 19.02C2.50794 18.1085 2.49752 17.1968 2.49973 16.285V13.715C2.49627 12.8033 2.50544 11.8915 2.52723 10.98L2.53598 10.7375C2.54598 10.4563 2.55848 10.18 2.57348 9.8475C2.63598 8.51625 2.84598 7.61 3.15473 6.8125C3.46935 5.97775 3.96251 5.2218 4.59973 4.5975C5.22368 3.96194 5.97872 3.47009 6.81223 3.15625C7.60973 2.8475 8.51598 2.6375 9.84723 2.575C10.1797 2.56 10.4572 2.5475 10.7372 2.5375L10.9797 2.53C11.8912 2.50779 12.803 2.49821 13.7147 2.50125L16.2847 2.5ZM14.9997 8.75C13.3421 8.75 11.7524 9.40848 10.5803 10.5806C9.40821 11.7527 8.74973 13.3424 8.74973 15C8.74973 16.6576 9.40821 18.2473 10.5803 19.4194C11.7524 20.5915 13.3421 21.25 14.9997 21.25C16.6573 21.25 18.247 20.5915 19.4192 19.4194C20.5913 18.2473 21.2497 16.6576 21.2497 15C21.2497 13.3424 20.5913 11.7527 19.4192 10.5806C18.247 9.40848 16.6573 8.75 14.9997 8.75ZM14.9997 11.25C15.4922 11.2499 15.9798 11.3468 16.4348 11.5352C16.8898 11.7236 17.3033 11.9997 17.6516 12.3479C17.9998 12.6961 18.2761 13.1094 18.4647 13.5644C18.6532 14.0193 18.7503 14.5069 18.7504 14.9994C18.7504 15.4918 18.6535 15.9795 18.4651 16.4345C18.2768 16.8895 18.0006 17.3029 17.6525 17.6512C17.3043 17.9995 16.8909 18.2758 16.436 18.4643C15.9811 18.6528 15.4934 18.7499 15.001 18.75C14.0064 18.75 13.0526 18.3549 12.3493 17.6517C11.6461 16.9484 11.251 15.9946 11.251 15C11.251 14.0054 11.6461 13.0516 12.3493 12.3483C13.0526 11.6451 14.0064 11.25 15.001 11.25M21.5635 6.875C21.1491 6.875 20.7517 7.03962 20.4586 7.33265C20.1656 7.62567 20.001 8.0231 20.001 8.4375C20.001 8.8519 20.1656 9.24933 20.4586 9.54235C20.7517 9.83538 21.1491 10 21.5635 10C21.9779 10 22.3753 9.83538 22.6683 9.54235C22.9614 9.24933 23.126 8.8519 23.126 8.4375C23.126 8.0231 22.9614 7.62567 22.6683 7.33265C22.3753 7.03962 21.9779 6.875 21.5635 6.875Z" fill="white"/>
</svg>
