<svg width="90" height="90" viewBox="0 0 90 90" fill="none" xmlns="http://www.w3.org/2000/svg">
<path d="M79.8662 55.7143C79.1757 59.8067 77.4997 63.7324 74.9438 67.2436C72.388 70.7548 69.0078 73.7753 65.0167 76.1143C64.0134 72.5571 57.8428 69.6429 49.7659 68.8286C50.6187 63.7286 52.3746 58.9714 53.5786 56.2286C55.4849 57.2571 57.6923 57.8571 60.2007 57.8571C78.01 57.8571 75.2508 32.1429 75.2508 32.1429C75.2508 32.1429 72.7425 36.4286 65.2174 36.4286H60.2007C57.9691 36.428 55.7778 36.9362 53.8528 37.9005C51.9278 38.8649 50.3389 40.2505 49.2499 41.9146C48.161 43.5786 47.6115 45.4606 47.6581 47.3666C47.7047 49.2726 48.3457 51.1334 49.515 52.7571C52.8261 49.8 56.388 47.1429 60.2007 45C53.5786 50.7 48.5117 57.8571 45.1505 64.7143C41.99 59.4429 38.0268 55.4143 35.1171 53.5714C37.4749 54.4286 39.6823 55.7143 41.7893 57C42.3411 55.9714 42.6421 54.8143 42.6421 53.5714C42.3913 41.8714 20.0669 42.8571 20.0669 42.8571C21.6221 44.6571 22.5753 46.9286 22.5753 49.2857V53.5714C22.5753 58.2857 27.0903 62.1429 32.6087 62.1429C35.1171 62.1429 37.3746 61.3714 39.1304 60C40.2843 62.7 41.1371 65.7857 41.5886 68.7429C32.9599 69.3857 26.3378 72.3857 25.2843 76.1571C16.1037 70.7143 10.0334 61.6714 10.0334 51.4286C10.0334 34.8857 25.786 21.4286 45.1505 21.4286V34.2857L70.2341 17.1429L45.1505 0V12.8571C33.1758 12.8571 21.6916 16.9209 13.2243 24.1545C4.75691 31.388 0 41.1988 0 51.4286C0 61.6583 4.75691 71.4691 13.2243 78.7027C21.6916 85.9362 33.1758 90 45.1505 90C68.3779 90 87.4916 75 90 55.7143H79.8662Z" fill="#3D1A0D"/>
</svg>
